<?xml version="1.0" encoding="UTF-8"?><svg id="Vrstva_2" xmlns="http://www.w3.org/2000/svg" xmlns:xlink="http://www.w3.org/1999/xlink" viewBox="0 0 162.32 166.53"><defs><style>.cls-1{fill:url(#Nepojmenovaný_přechod_14-4);}.cls-2{fill:url(#Nepojmenovaný_přechod_14-7);}.cls-3{fill:url(#Nepojmenovaný_přechod_14-2);}.cls-4{fill:url(#Nepojmenovaný_přechod_14-5);}.cls-5{fill:url(#Nepojmenovaný_přechod_14-3);}.cls-6{fill:url(#Nepojmenovaný_přechod_14-8);}.cls-7{fill:url(#Nepojmenovaný_přechod_14-6);}.cls-8{fill:url(#Nepojmenovaný_přechod_14-9);}.cls-9{fill:url(#Nepojmenovaný_přechod_15);}.cls-10{fill:url(#Nepojmenovaný_přechod_14);}.cls-11{fill:url(#Nepojmenovaný_přechod_14-15);}.cls-12{fill:url(#Nepojmenovaný_přechod_14-12);}.cls-13{fill:url(#Nepojmenovaný_přechod_14-18);}.cls-14{fill:url(#Nepojmenovaný_přechod_14-16);}.cls-15{fill:url(#Nepojmenovaný_přechod_14-10);}.cls-16{fill:url(#Nepojmenovaný_přechod_14-11);}.cls-17{fill:url(#Nepojmenovaný_přechod_14-17);}.cls-18{fill:url(#Nepojmenovaný_přechod_14-14);}.cls-19{fill:url(#Nepojmenovaný_přechod_14-13);}.cls-20{fill:url(#Nepojmenovaný_přechod_14-19);}.cls-21{fill:url(#Nepojmenovaný_přechod_14-20);}.cls-22{fill:url(#Nepojmenovaný_přechod_14-21);}</style><linearGradient id="Nepojmenovaný_přechod_15" x1="51.49" y1="-2.33" x2="167.16" y2="133.41" gradientUnits="userSpaceOnUse"><stop offset="0" stop-color="#695041"/><stop offset=".1" stop-color="#88694f"/><stop offset=".29" stop-color="#bd9468"/><stop offset=".33" stop-color="#c0996f"/><stop offset=".5" stop-color="#c9a984"/><stop offset=".61" stop-color="#cdaf8c"/><stop offset=".62" stop-color="#ccad89"/><stop offset=".74" stop-color="#c39f77"/><stop offset=".87" stop-color="#be966b"/><stop offset="1" stop-color="#bd9468"/></linearGradient><linearGradient id="Nepojmenovaný_přechod_14" x1="46.02" y1="2.34" x2="161.69" y2="138.07" gradientUnits="userSpaceOnUse"><stop offset="0" stop-color="#695041"/><stop offset=".1" stop-color="#88694f"/><stop offset=".29" stop-color="#bd9468"/><stop offset=".61" stop-color="#bd9468"/><stop offset=".62" stop-color="#bd9468"/><stop offset="1" stop-color="#bd9468"/></linearGradient><linearGradient id="Nepojmenovaný_přechod_14-2" x1="49.65" y1="-.76" x2="165.32" y2="134.98" xlink:href="#Nepojmenovaný_přechod_14"/><linearGradient id="Nepojmenovaný_přechod_14-3" x1="55.05" y1="-5.36" x2="170.72" y2="130.38" xlink:href="#Nepojmenovaný_přechod_14"/><linearGradient id="Nepojmenovaný_přechod_14-4" x1="63.15" y1="-12.26" x2="178.82" y2="123.48" xlink:href="#Nepojmenovaný_přechod_14"/><linearGradient id="Nepojmenovaný_přechod_14-5" x1="62.27" y1="-11.52" x2="177.95" y2="124.22" xlink:href="#Nepojmenovaný_přechod_14"/><linearGradient id="Nepojmenovaný_přechod_14-6" x1="65.15" y1="-13.97" x2="180.82" y2="121.77" xlink:href="#Nepojmenovaný_přechod_14"/><linearGradient id="Nepojmenovaný_přechod_14-7" x1="71.54" y1="-19.41" x2="187.21" y2="116.32" xlink:href="#Nepojmenovaný_přechod_14"/><linearGradient id="Nepojmenovaný_přechod_14-8" x1="81.03" y1="-27.5" x2="196.7" y2="108.24" xlink:href="#Nepojmenovaný_přechod_14"/><linearGradient id="Nepojmenovaný_přechod_14-9" x1="69.51" y1="-17.68" x2="185.18" y2="118.05" xlink:href="#Nepojmenovaný_přechod_14"/><linearGradient id="Nepojmenovaný_přechod_14-10" x1="-25.93" y1="63.65" x2="89.74" y2="199.39" xlink:href="#Nepojmenovaný_přechod_14"/><linearGradient id="Nepojmenovaný_přechod_14-11" x1="-20.49" y1="59.01" x2="95.18" y2="194.75" xlink:href="#Nepojmenovaný_přechod_14"/><linearGradient id="Nepojmenovaný_přechod_14-12" x1="-8.49" y1="48.78" x2="107.18" y2="184.52" xlink:href="#Nepojmenovaný_přechod_14"/><linearGradient id="Nepojmenovaný_přechod_14-13" x1="2.38" y1="39.52" x2="118.05" y2="175.26" xlink:href="#Nepojmenovaný_přechod_14"/><linearGradient id="Nepojmenovaný_přechod_14-14" x1="20.83" y1="23.8" x2="136.51" y2="159.53" xlink:href="#Nepojmenovaný_přechod_14"/><linearGradient id="Nepojmenovaný_přechod_14-15" x1="14.72" y1="29.01" x2="130.39" y2="164.75" xlink:href="#Nepojmenovaný_přechod_14"/><linearGradient id="Nepojmenovaný_přechod_14-16" x1="21.49" y1="23.23" x2="137.17" y2="158.97" xlink:href="#Nepojmenovaný_přechod_14"/><linearGradient id="Nepojmenovaný_přechod_14-17" x1="29.96" y1="16.02" x2="145.64" y2="151.75" xlink:href="#Nepojmenovaný_přechod_14"/><linearGradient id="Nepojmenovaný_přechod_14-18" x1="35.1" y1="11.64" x2="150.77" y2="147.38" xlink:href="#Nepojmenovaný_přechod_14"/><linearGradient id="Nepojmenovaný_přechod_14-19" x1="56.19" y1="-6.34" x2="171.87" y2="129.4" xlink:href="#Nepojmenovaný_přechod_14"/><linearGradient id="Nepojmenovaný_přechod_14-20" x1="23.57" y1="21.46" x2="139.24" y2="157.2" xlink:href="#Nepojmenovaný_přechod_14"/><linearGradient id="Nepojmenovaný_přechod_14-21" x1="16.67" y1="27.34" x2="132.35" y2="163.08" xlink:href="#Nepojmenovaný_přechod_14"/></defs><g id="Vrstva_1-2"><path class="cls-9" d="M104.73,60.14c.71.13,1.26.45,1.42.87.1.23-.03.55-.32.71-.26.13-.61.03-.71-.23-.03-.06-.19-.29-1.13-.45-1.45-.26-4.06-.23-7.03.13-.26,0-.48.03-.58.06-.61,1.77-1.23,3.48-1.74,5.03-.1.23-.16.48-.26.68.03,1.19-.13,2.39-.32,3.48-.68,3.32-3.58,11.61-4.35,12.73-.19.29-.48.48-.74.48-.06,0-.13-.03-.19-.03-.42-.16-.32-.71-.16-1.42.13-.52.35-1.32.64-2.35.58-1.81,2.9-9.51,4.03-12.86-.03-1.84-.55-3.58-2-4.61-.23-.13-.29-.39-.23-.64.16-.35.58-.58,1.52-.84.61-.16,1.48-.32,2.48-.48.23-.03.45-.06.55-.06,1.35-3.87,3.03-8.54,5-14.02.35-1.13.32-1.48.29-1.68,0-.29,0-.52.32-1,.19-.23.58-.74,1.06-.58.42.19.26.71.16,1.13-.03.06-.03.13-.06.16,0,.03,0,.1-.03.16-.06.16-.13.35-.19.52-.1.29-.23.61-.35,1,0,.03-.03.06-.03.06-.03.13-.1.26-.13.39s-.1.29-.16.45c0,.03-.03.06-.03.1-1.84,5.13-3.42,9.54-4.67,13.15,1.58-.19,3.48-.32,5-.32,1.13,0,2.06.1,2.77.23l.19.06ZM90.45,79.38c-.19.68,1.87-6.32,2.26-7.41.32-1.87.29-1.71.42-1.45l-.16-.13c-.42,2.22-2.68,9.38-2.51,8.99ZM94.03,65.36c.29-1.39.77-2.74,1.23-4-1.39.19-2.45.45-2.74.55.87.74,1.45,1.97,1.71,3.26l-.19.19ZM119.66,41.57c-2.26.03-5.19.19-8.32.42-5.67.42-12.86,1.23-16.05,2.16-.93.29-1.16.48-1.19.48.03.19-.16.45-.42.55-.06.03-.13.03-.19.03-.23,0-.42-.16-.45-.32-.1-.52.32-1,1.16-1.35,2.48-1.1,10.25-2,16.63-2.51,3.38-.26,6.64-.42,9.09-.48,1.26,0,2.29,0,3,.06,1.16.06,1.48.26,1.58.52.1.19.03.55-.39.84-.1.06-.16.1-.19.13-.29.23-.58.16-.68.1-.13-.06-.23-.23-.23-.35-.06-.03-.61-.29-3.19-.26h-.16Z"/><path class="cls-10" d="M102.13,71.55c-.45-.9,0-1.9.29-2.48.06-.13.13-.29.13-.23-.06,0-.52.03-1.03.06-.58.06-1.19.13-1.64.1,0,0-.03.06-.1.16-.16.23-.52.32-.77.19-.19-.1-.26-.39-.23-.45-.26-.03-.64-.23-.84-.52-.13-.26-.23-.68.1-1.29.26-.45.9-.87,1.48-.93.45-.06.87.1,1.03.42.23.39.13.93-.1,1.42.23-.03.71-.06,1.1-.1.68-.06,1.22-.1,1.55-.03.32.03.48.23.55.35.16.35-.03.74-.23,1.16-.29.55-.55,1.13-.29,1.64.13.23.16.23.29.19.84-.16,2.22-1.87,2.42-2.29,0-.13.1-.29.26-.39.23-.19.61-.16.77.06.16.26-.03.61-.1.74-.32.55-2,2.74-3.38,2.9h-.16c-.35,0-.81-.16-1.1-.71ZM99.52,67.17c-.19.03-.45.16-.52.32-.1.16-.13.26-.1.32.06.1.23.13.42.16.35-.61.26-.81.26-.84,0,.03.03.03,0,.03h-.06Z"/><path class="cls-3" d="M114.96,69.07c-1.93,2.35-3.87,3.48-5.03,2.93-.55-.29-.81-.87-.81-1.26-.58.71-1.61,1.32-2.42,1.52-.16.03-.35.03-.52.03-.52,0-.93-.19-1.16-.58-.23-.39-.39-1.32.9-3,1-1.29,2.22-2.1,3.26-2.1.48,0,.9.23.97.35,0,.03.29-.1.52-.06.26.06.39.35.32.58-.13.35-.26.68-.39.97-.58,1.58-.45,2.42-.03,2.61.48.26,1.77-.39,3.61-2.55.16-.23.55-.29.77-.16,0,0,.19.48,0,.71ZM109.38,67.91c-.06-.23-.23-.26-.39-.26h-.03c-.48,0-1.29.39-2.19,1.58-.81,1-.9,1.64-.77,1.9.1.16.29.19.65.13.61-.13,1.32-.61,2.03-1.52,0,0,0-.03.03-.06,0,0,.84-1.42.68-1.77Z"/><path class="cls-5" d="M124.31,69.2c-1.9,1.26-3.35,1.9-4.35,1.9-.26,0-.52-.03-.71-.13-1.03-.45-1-1.74-1-2.74.03-.35.03-.9,0-.9.03-.03-.29.1-1.52,1.32-.19.19-.39.42-.58.58-.55.58-.97,1-1.32,1.29-.29.32-.81.77-1.22.52-.42-.29-.16-.87.06-1.35.19-.45.52-1.1,1.1-2.26.13-.23.52-.39.74-.32.26.1.35.42.23.64-.26.52-.61,1.23-.58,1.13-.35.35-.03.03.29-.26.16-.19.35-.39.58-.61,1.32-1.32,2.13-1.84,2.71-1.68.64.16.64.93.61,1.74,0,.84-.03,1.74.48,1.97.42.16,1.39.06,3.97-1.64.26-.16.64-.1.74.1,0,0,.03.55-.23.71Z"/><path class="cls-1" d="M117.89,57.66c3.58-.58,6.93-1.06,9.7-1.35,1.19-3.09,2.35-5.64,3.16-6.93.19-.35.39-.64.55-.84.13-.19.48-.68.93-.48s.23.71.13,1.03c-.13.29-.32.71-.58,1.26-.42.84-1.22,2.39-2.68,4.93,0,.03-.03.06-.03.06-.13.32-.26.68-.35.84,1.71-.16,3.38-.29,4.84-.32.45-.03.9-.03,1.29-.03,1.26,0,2.29.1,3,.23.74.16,1.16.42,1.19.77.03.29-.19.61-.52.74h-.06c-.13.03-.26.06-.39.06-.32,0-.61-.1-.93-.23-.52-.23-1.23-.52-2.48-.55h-.77c-1.61.03-3.48.16-5.54.39-1.26,3.29-2.64,7.45-3.8,11.64-.71,2.61-1.16,4.9-1.26,6.58-.13,1.81.13,2.19.23,2.22,0,0,.29.03,1.42-1.77.97-1.58,2.1-4,3.42-7.19.1-.23.45-.45.71-.39s.39.39.29.61c-1.32,3.22-2.48,5.71-3.51,7.35-.97,1.58-1.81,2.39-2.51,2.39h-.19c-.77-.16-1.06-1.23-.93-3.13.13-1.74.58-4.09,1.32-6.77,1.13-4.13,2.48-8.19,3.71-11.44-2.58.29-5.8.74-9.48,1.35h-.06c-.26,0-.48-.19-.48-.42,0-.26.26-.52.55-.58l.16-.03Z"/><path class="cls-4" d="M129.69,66.62c.29-.03.52.16.61.42.1.35-.03.77-.35,1.06-.16.16-.35.48-.45.61-.26,1.13-.16,2.1.32,2.35.58.35,1.97-.55,3.74-2.58.19-.19.58-.26.81-.1.16.16.16.48-.03.71-2.1,2.35-3.51,3.06-4.42,3.06-.32,0-.58-.1-.77-.19-.9-.52-1.03-1.93-.71-3.32,0-.03.03-.06.03-.1.13-.52.32-1.03.58-1.52,0,0,.45-.42.64-.42ZM129.92,65.84c-.23-.26-.06-.64.19-1,.16-.32.39-.68.81-.68.1,0,.42.03.48.39.13.55-.35,1.13-.68,1.32-.13.1-.29.13-.42.13-.16,0-.32-.06-.39-.16Z"/><path class="cls-7" d="M144.52,69.23c-2.64,1.52-4.58,2.84-5.87,3.87.06.1.1.32.1.52.03.97-.71,2.06-2.32,3.45-.71.61-1.39.97-1.87.97-.1,0-.23,0-.29-.03-.32-.1-.48-.39-.45-.74.03-.74.93-2,2.45-3.38.26-.26.61-.58.94-.84-.29-.26-.87-.52-1.48-.81-1.16-.52-2.42-1.13-2.48-2.32-.03-.87.58-1.9,1.9-3.16,1.64-1.55,2.77-2.16,3.38-1.64.52.42.19,1.52-.26,2.32-.03.03-.03.06-.03.06-.13.19-.26.39-.39.55,0,.03-.03.03-.03.06-.16.23-.48.55-.84.55-.06,0-.13-.03-.19-.03-.26-.1-.39-.39-.29-.77.13-.55.55-.71.84-.71h-.06s0,.03.03-.06c.35-.58.45-1.1.45-1.13.03,0-.35,0-1.93,1.48-1.03.97-1.52,1.74-1.48,2.26.03.71,1,1.16,1.97,1.61.71.32,1.42.68,1.81,1.03,1.26-1,3.22-2.39,5.96-3.97.26-.13.64-.06.74.16,0,0-.03.55-.29.71ZM135.85,76.58c1.22-1.32,1.84-2.16,1.8-2.77,0-.06,0-.1.03.06-.26.23-.64.58-1,.9-1.48,1.42-1.77,2.19-1.77,2.22-.06.03.23-.1.74-.29l.19-.13Z"/><path class="cls-2" d="M151.09,69.23c-2.84,1.97-4.67,2.58-5.8,2.58-.84,0-1.29-.32-1.52-.61-.74-1-.1-3,1.35-4.35,1.13-1.03,1.87-.77,2.09-.64.45.26.55.84.29,1.45-.32.77-1.32,1.64-2.87,1.71-.16.42-.16.87.03,1.13.48.64,2.22.48,6-2.1.26-.16.65-.13.74.1.13.19.03.55-.19.71l-.13.03ZM145.65,67.75c-.13.06-.42.42-.52.58.71-.1,1.22-.52,1.39-.93.1-.19.06-.29.03-.32,0,0,.03,0,0,0-.1,0-.32.1-.74.48l-.16.19Z"/><path class="cls-6" d="M159.7,69.04c-2.32,3.16-4.32,4.8-5.9,4.8-.13,0-.29,0-.39-.03-1.48-.29-2-1.97-2.06-2.48-.35.58-.9,1.74-1.32,3.19-.19.71-.39,1.45-.58,2.19-.06.23-.35.45-.64.45h-.03c-.29,0-.45-.29-.39-.55.19-.71.39-1.42.58-2.13v-.06c.52-1.87,1.06-3.74,1.61-5.61,0-.03,0-.1.03-.13v-.03c1.61-5.38,3.32-10.61,4.96-15.09,1.19-3.19,2.29-5.9,3.19-7.8,1.35-2.84,2.1-3.42,2.55-3.58.32-.1.71-.03.9.23.16.19.16.52-.23,1.74-.26.71-.64,1.74-1.16,3.06-.87,2.16-2.1,5.16-3.68,8.93-2.55,5.96-5.19,11.96-5.51,12.7-.13.42-.26.87-.13.45.74-1.06,2.22-2.06,3.22-2.32.52-.13,1-.03,1.16.29.13.19.19.61-.32,1.26-.74.87-1.74,1.03-2.39,1.13-.39.03-.68.1-.77.19-.06.06-.1.26-.1.39,0,.52.35,2.39,1.45,2.58.77.13,2.26-.45,5.09-4.26.16-.23.55-.32.74-.19,0,0,.26.45.1.68ZM153.29,68.75c.26-.16.68-.13,1.26-.42.26-.06.55-.45.45-.52-.19-.19-1.52.61-1.71.93ZM156.32,54.53c-.71,1.9-1.74,4.96-1.84,5.25-.42.97.55-1.26,1.48-3.48,4.19-9.86,5.09-12.51,5.16-12.83,0,.03-1.35,1.68-4.48,10.22l-.32.84Z"/><path class="cls-8" d="M140.5,62.36c.13.19,0,.55-.26.71-.84.58-2.61,1.23-2.68,1.26-.06.03-.16.03-.23.03-.1,0-.23-.03-.29-.1-.61-.52-1.32-1.13-1.45-1.16-.23-.13-.29-.42-.13-.68.16-.23.52-.39.77-.26.26.1,1.1.81,1.42,1.1.48-.16,1.58-.61,2.1-.97,0,0,.61-.13.74.06Z"/><path class="cls-15" d="M43.91,162.84c0,.42-.3.83-.65,1.01-.18.12-.42.18-.59.18-.48,0-.95-.36-1.37-.77-2.14-1.9-7.91-8.74-12.97-16.24-4.04-6.07-6.48-10.83-7.14-13.32,0,0-.3,1.01-.65,2.02-2.5,7.91-4.94,15.35-6.84,20.94-1.07,2.91-1.9,5.12-2.56,6.66-.95,2.2-1.67,3.15-2.56,3.21h-.12c-.42,0-.95-.24-1.13-1.19-.42-2.8.71-6.42,1.78-9.87,1.9-6.25,2.8-9.93-.54-10.94-.77-.24-1.25-.89-1.07-1.72.18-.95,1.13-2.8,7.61-7.73,1.43-1.13,3.03-2.32,4.76-3.51.3-.83.59-1.72.83-2.62.06-.24.18-.48.3-.71,2.74-8.56,5.59-17.19,7.97-23.67,0-.06.06-.18.12-.36,1.25-3.03,1.43-4.22,1.55-4.82.06-.36.12-.65.36-1.01.18-.36,1.07-1.73,2.08-1.31.59.18.65.83.3,1.61-2.8,6.42-6.84,18.56-10.71,30.51-.06.3-.06.59-.06.54,2.2-1.55,5.17-3.51,8.33-5.47,10.94-6.9,24.8-14.69,30.99-16.42,1.31-.36,3.33-.71,3.93.54.18.42-.06,1.01-.54,1.25-.48.3-1.19.12-1.37-.3,0,.06-.12-.12-1.78.3-5.06,1.43-17.31,7.91-30.39,16.18-3.21,2.02-6.3,4.04-8.92,5.89.18,1.01.65,2.44,1.55,4.4,1.49,3.09,3.81,7.02,6.72,11.24,5.23,7.55,10.65,13.8,11.9,14.75h-.12s1.01.3,1.01.77ZM18.99,134.35c-.54.42-1.72,1.25-2.8,2.08-6.01,4.58-6.66,6.07-6.72,6.36,0,.06,0-.06,0-.06,2.32.71,3.45,2.5,3.33,5.23-.06,2.26-.95,5.06-1.78,7.73-.89,3.03-1.84,6.13-1.78,7.44.06-.12,1.01-2.5,2.85-7.67,1.84-5.41,4.1-12.49,6.54-19.99,0,0,.42-1.19.36-1.13Z"/><path class="cls-16" d="M59.43,140.24c-3.57,4.34-7.14,6.42-9.28,5.41-1.01-.54-1.49-1.61-1.49-2.32-1.07,1.31-2.97,2.44-4.46,2.79-.3.06-.65.06-.95.06-.95,0-1.72-.36-2.14-1.07s-.71-2.44,1.67-5.53c1.84-2.38,4.1-3.87,6.01-3.87.89,0,1.67.42,1.78.65,0,.06.54-.18.95-.12.48.12.71.65.59,1.07-.24.65-.48,1.25-.71,1.78-1.07,2.92-.83,4.46-.06,4.82.89.48,3.27-.71,6.66-4.7.3-.42,1.01-.54,1.43-.3,0,0,.36.89,0,1.31ZM49.14,138.1c-.12-.42-.42-.48-.71-.48h-.06c-.89,0-2.38.71-4.04,2.91-1.49,1.84-1.67,3.03-1.43,3.51.18.3.54.36,1.19.24,1.13-.24,2.44-1.13,3.75-2.79,0,0,0-.06.06-.12,0,0,1.55-2.62,1.25-3.27Z"/><path class="cls-12" d="M85.24,140.36c-2.2,1.9-4.16,2.92-5.83,2.92h-.06c-2.14-.06-3.33-1.55-4.28-2.74-.65-.89-1.25-1.61-1.72-1.49-.42,0-1.19.42-2.68,2.44-.42.54-1.13,1.43-2.08,1.37-1.19-.06-1.55-1.31-1.9-2.74-.36-1.19-.77-2.74-1.37-2.74-.36-.06-1.13.18-3.03,2.56-1.43,1.72-2.44,2.92-3.21,3.69-.65.71-1.37,1.43-2.08,1.43-.18,0-.36-.06-.48-.12-.83-.42-.48-1.55.12-2.91.42-1.13,1.19-2.74,2.14-4.76.24-.48.89-.77,1.37-.65.48.18.65.71.48,1.19-.59,1.25-1.55,3.21-1.55,3.21-.48.54.36-.48,1.72-2.08,1.9-2.38,3.57-3.51,5-3.45,1.78.18,2.38,2.2,2.8,3.87.18.59.42,1.43.42,1.43-.18.18-.12.06.12-.18,1.55-2.14,2.97-3.27,4.28-3.45,1.55-.18,2.5,1.01,3.33,2.08.89,1.07,1.72,2.14,2.97,2.14,1.07,0,2.5-.71,4.34-2.32.42-.3,1.13-.3,1.43,0,0,0,.18.95-.24,1.31Z"/><path class="cls-19" d="M85.89,135.72c.54-.06.95.3,1.13.77.18.65-.06,1.43-.65,1.96-.3.3-.65.89-.83,1.13-.48,2.08-.3,3.87.59,4.34,1.07.65,3.63-1.01,6.9-4.76.36-.36,1.07-.48,1.49-.18.3.3.3.89-.06,1.31-3.87,4.34-6.48,5.65-8.15,5.65-.59,0-1.07-.18-1.43-.36-1.67-.95-1.9-3.57-1.31-6.13,0-.06.06-.12.06-.18.24-.95.59-1.9,1.07-2.79,0,0,.83-.77,1.19-.77ZM86.31,134.29c-.42-.48-.12-1.19.36-1.84.3-.59.71-1.25,1.49-1.25.18,0,.77.06.89.71.24,1.01-.65,2.08-1.25,2.44-.24.18-.54.24-.77.24-.3,0-.59-.12-.71-.3Z"/><path class="cls-18" d="M105.58,140c-5,6.66-8.57,9.93-10.88,9.93-.3,0-.59-.06-.83-.18-1.31-.54-1.84-2.44-1.67-5.53.18-2.5.83-5.95,1.9-10.23,1.84-7.2,5-16.89,8.5-25.87,1.9-4.76,3.69-8.92,5.17-11.96.77-1.55,1.43-2.74,2.02-3.63.54-.83,1.31-1.84,2.32-1.78.3,0,.59.24.77.48.3.54.89,1.61-8.62,25.52-4.46,11.12-9.1,22.19-9.46,23.14-.48,2.5-.71,4.52-.6,5.95.06,1.43.36,2.14.77,2.2.59.12,2.68-.54,8.98-8.98.36-.36,1.07-.6,1.43-.3,0,0,.48.83.18,1.25ZM101.53,115.8c-1.84,5.89-3.63,11.48-3.75,11.96,0,0,2.2-5.41,4.4-10.94,2.68-6.66,4.82-12.13,6.3-16.24,1.43-3.99,2.08-6.13,1.96-5.71.3-.48-.71,1.31-2.32,4.94-1.96,4.34-4.16,9.93-6.01,14.69l-.59,1.31Z"/><path class="cls-11" d="M120.21,140.24c-3.57,4.34-7.14,6.42-9.28,5.41-1.01-.54-1.49-1.61-1.49-2.32-1.07,1.31-2.97,2.44-4.46,2.79-.3.06-.65.06-.95.06-.95,0-1.72-.36-2.14-1.07-.42-.71-.71-2.44,1.67-5.53,1.84-2.38,4.1-3.87,6.01-3.87.89,0,1.67.42,1.78.65,0,.06.54-.18.95-.12.48.12.71.65.59,1.07-.24.65-.48,1.25-.71,1.78-1.07,2.92-.83,4.46-.06,4.82.89.48,3.27-.71,6.66-4.7.3-.42,1.01-.54,1.43-.3,0,0,.36.89,0,1.31ZM109.92,138.1c-.12-.42-.42-.48-.71-.48h-.06c-.89,0-2.38.71-4.04,2.91-1.49,1.84-1.67,3.03-1.43,3.51.18.3.54.36,1.19.24,1.13-.24,2.44-1.13,3.75-2.79,0,0,0-.06.06-.12,0,0,1.55-2.62,1.25-3.27Z"/><path class="cls-14" d="M53.73,48.84c-3.47,4.22-6.94,6.25-9.03,5.27-.98-.52-1.45-1.56-1.45-2.26-1.04,1.27-2.89,2.37-4.34,2.72-.29.06-.64.06-.93.06-.93,0-1.68-.35-2.08-1.04-.41-.69-.69-2.37,1.62-5.38,1.79-2.31,3.99-3.76,5.84-3.76.87,0,1.62.41,1.74.64,0,.06.52-.17.93-.12.46.12.69.64.58,1.04-.23.64-.46,1.22-.69,1.74-1.04,2.84-.81,4.34-.06,4.69.87.46,3.18-.69,6.48-4.57.29-.41.98-.52,1.39-.29,0,0,.35.87,0,1.27ZM43.71,46.76c-.12-.4-.4-.46-.69-.46h-.06c-.87,0-2.31.69-3.93,2.84-1.45,1.79-1.62,2.95-1.39,3.41.17.29.52.35,1.16.23,1.1-.23,2.37-1.1,3.65-2.72,0,0,0-.06.06-.12,0,0,1.5-2.55,1.22-3.18Z"/><path class="cls-17" d="M65.59,45.95c.06.41-.35.98-.81,1.1-3.01.93-4.22-.12-4.51-.35-.12.23-.75,1.56-1.16,2.49-2.03,4.46-3.47,6.42-4.92,6.42h-.12c-1.1-.06-1.68-1.27-1.91-3.7-.12-1.04-.17-2.2-.17-3.41v-.06c-.06-.12-.06-.93-.11-1.68v-1.22c0-.52,0-1.33.87-1.56.29-.12.98-.17,1.22.64.29,1.04.17,1.62.06,2.2-.06.35-.12.64-.12,1.1v.23c.06.17.06.29.06.41v.23c0,.87.06,1.68.12,2.37.17,2.26.52,2.6.46,2.6s.75-.58,2.78-5.03c1.39-3.12,1.79-3.88,2.66-4.17.69-.23,1.16.17,1.45.46.46.41,1.04.93,3.07.29,0,0,1.04.17,1.1.64Z"/><path class="cls-13" d="M64.54,44.44c.52-.06.93.29,1.1.75.17.64-.06,1.39-.64,1.91-.29.29-.64.87-.81,1.1-.46,2.03-.29,3.76.58,4.22,1.04.64,3.53-.98,6.71-4.63.35-.35,1.04-.46,1.45-.17.29.29.29.87-.06,1.27-3.76,4.22-6.31,5.5-7.93,5.5-.58,0-1.04-.17-1.39-.35-1.62-.93-1.85-3.47-1.27-5.96,0-.06.06-.12.06-.17.23-.93.58-1.85,1.04-2.72,0,0,.81-.75,1.16-.75ZM64.95,43.05c-.4-.46-.12-1.16.35-1.79.29-.58.69-1.22,1.45-1.22.17,0,.75.06.87.69.23.98-.64,2.03-1.22,2.37-.23.17-.52.23-.75.23-.29,0-.58-.12-.69-.29Z"/><path class="cls-20" d="M85.95,40.68c-.69,2.08-1.33,4.17-1.97,6.19-1.62,5.15-3.07,9.72-4.28,13.48-.11.35-.46,1.33-.69,2.43-.17.64-.35,1.16-.52,1.45-.17.58-.46.98-.93,1.16-.12.06-.29.12-.4.12-.23,0-.46-.12-.58-.23-.41-.35-.23-.93-.06-1.33.4-1.16.81-2.43,1.27-3.82.06-.17.06-.23.06-.23.06,0,.06-.06.06-.06,1.22-3.65,2.6-8.22,4.17-13.19.23-.64.4-1.27.17-.46-2.49,3.36-6.54,6.54-9.14,7.35-.46.12-.87.17-1.16.17-.69,0-1.16-.29-1.39-.52-.52-.58-.52-1.56,0-2.78,1.22-3.12,2.95-4.86,4.22-5.73,1.45-1.04,3.18-1.56,4.57-1.22,1.04.17,1.74.81,1.85,1.16.69-.87,1.85-2.49,2.89-4.4,2.6-8.22,5.44-16.9,8.1-24.01C97.41,2.03,99.9,0,101.58,0c.52,0,.98.23,1.16.64.41.69.52,2.2-1.56,7.75-1.22,3.12-3.01,7.23-5.38,12.27l-9.84,20.02ZM79.7,46.99c.06-1.22-.4-1.62-1.04-1.79h-.46c-1.56,0-4.11,1.33-5.84,5.61-.29.69-.29.98-.23,1.1.06,0,.17,0,.69-.12,1.22-.4,3.7-1.91,6.48-4.92.12-.12.17-.17.23-.29l.17.41ZM93.71,16.72c-1.5,4.69-3.41,10.36-4.22,12.85.06-.06,2.43-4.8,4.69-9.72,2.37-4.98,4.11-9.09,5.27-12.21,1.85-4.8,1.62-5.79,1.62-5.79.06,0-.69.29-2.43,3.7-1.33,2.49-2.84,6.08-4.63,10.47l-.29.69Z"/><path class="cls-21" d="M63.08,7.3c-1.98-1.66-4.32-3.07-6.97-4.19C51.13.9,45.33.08,38.88.67c-10.52.72-19.23,3.82-26.63,9.49-1.07.8-1.88,1.65-2.76,2.67-.26.61-.19,1.16.19,1.44.4.3,1.02.2,1.59-.26.42-.34.82-.75,1.24-1.18.61-.62,1.25-1.27,1.98-1.73C25.56,3.65,37.77,1.12,50.77,3.61c3.79.65,7.29,2.13,10.11,4.3,5.19,4.06,5.5,11.17.74,17.3-1.66,2.38-3.93,5.44-6.74,7.97-8.52,7.97-18.87,14.07-32.59,19.19-.32.12-.6.18-.93.25-.2.04-.41.09-.66.15l-.11.03-.03-.11c-1.28-4.12-.79-8.84-.43-12.3v-.08s.08-.03.08-.03c1.74-.55,3.52-1.19,5.41-1.86.77-.28,1.57-.56,2.4-.85-2.01-1.27-3.47-.79-5.14-.23-.63.21-1.29.43-2.02.57l-.16.03.02-.16c.51-4.94,2.08-19.97,6.63-28.7.19-.42-.1-1.43-.49-1.68-.09-.07-.23-.09-.39-.09-.43,0-1.01.19-1.18.38-.65.72-1.18,1.66-1.56,2.78-3.25,8.73-5.3,17.65-6.65,28.95v.07s-.07.03-.07.03c-.62.29-1.23.61-1.93.99-.26.14-.52.28-.8.42-3.17,1.69-7.83,4.37-11.57,8.15-1.83,1.56-3.38,3.15-2.42,5.51.85,2.37,3.32,2.63,5.49,2.85,4,.33,7.9-.54,11.52-1.54,12.26-3.42,23.49-9.04,33.39-16.71,3.7-2.72,6.96-6.17,10.11-9.5l.37-.39c2.49-2.51,4.34-5.73,5.5-9.56,1.43-5.05.23-9.24-3.58-12.45ZM17.62,53.75c-3.4,1-6.56,1.84-9.79,1.84-1.24,0-2.49-.12-3.76-.41-1.14-.25-1.87-.72-2.09-1.35-.2-.59.02-1.28.66-2.06,3.87-4.6,9.22-7.61,13.94-10.06l.19-.1v.21c-.19,4.03-.1,7.58.94,11.79l.03.11-.11.03Z"/><path class="cls-22" d="M73.47,102.17c-.16,0-.33-.01-.49-.03-1.45-.18-2.2-1.05-2.41-1.79-.19-.69.01-1.38.54-1.81l.94,1.17c-.07.05-.06.15-.04.23.08.27.42.62,1.15.71,1.06.14,2.26-.46,2.92-1.46.84-1.27.71-3-.37-4.86-.07-.11-.14-.23-.23-.35-.4.7-.88,1.35-1.46,1.92-1.51,1.46-3.45,2.13-5.81,1.98-2.57-.17-4.5-1.69-4.93-3.89-.48-2.44,1.03-4.9,3.83-6.26.24-.12.49-.24.74-.36-.56-.52-1.03-1.01-1.37-1.5-.96-1.36-1.1-2.99-.39-4.37.71-1.37,2.16-2.22,3.77-2.22,1.24,0,2.36.48,3.17,1.34.75.81,1.17,1.91,1.1,2.88-.13,1.76-1.71,3.06-3.61,4.15.44.35.89.7,1.33,1.05,1.1.85,2.21,1.72,3.16,2.58.87-2.67.79-5.39.79-5.43l1.5-.05c0,.19.1,3.54-1.11,6.66.33.37.61.74.82,1.1,1.86,3.22,1,5.42.32,6.45-.88,1.32-2.38,2.14-3.87,2.15ZM69.09,88.44c-.44.22-.88.44-1.32.65-2.17,1.06-3.36,2.87-3.02,4.62.3,1.53,1.66,2.56,3.56,2.68,1.9.12,3.47-.4,4.66-1.55.6-.58,1.07-1.29,1.45-2.04-.96-.93-2.23-1.92-3.48-2.89-.64-.5-1.27-.99-1.85-1.46ZM69.87,80.8c-1.07,0-1.98.53-2.44,1.41-.46.88-.35,1.91.29,2.81.34.49.9,1.04,1.57,1.63,1.74-.94,3.26-2.02,3.35-3.24.03-.45-.17-1.17-.7-1.75-.37-.39-1.02-.86-2.07-.86Z"/></g></svg>